<svg xmlns="http://www.w3.org/2000/svg" width="343" height="175" viewBox="0 0 343 175" fill="none">
  <path d="M0.42749 66.4396C0.42749 31.6455 0.42749 14.2484 11.7535 5.24044C23.0794 -3.76754 40.0301 0.147978 73.9315 7.97901L308.33 62.1238C324.686 65.9018 332.864 67.7909 337.646 73.8031C342.427 79.8154 342.427 88.2086 342.427 104.995V131C342.427 151.742 342.427 162.113 335.984 168.556C329.54 175 319.169 175 298.427 175H44.4275C23.6857 175 13.3148 175 6.87114 168.556C0.42749 162.113 0.42749 151.742 0.42749 131V66.4396Z" fill="url(#paint0_linear_1547_26)"/>
  <defs>
    <linearGradient id="paint0_linear_1547_26" x1="0.42749" y1="128" x2="354.57" y2="128" gradientUnits="userSpaceOnUse">
      <stop stop-color="#5936B4"/>
      <stop offset="1" stop-color="#362A84"/>
    </linearGradient>
  </defs>
</svg>